# xmcd
#
# Track frame offsets:
#	150
#	22583
#	48397
#
# Disc length: 901 seconds
#
# Revision: 1
# Processed by: cddbd v1.5.2PL0 Copyright (c) Steve Scherf et al.
# Submitted via: audiograbber 1.83.01
#
DISCID=15038303
DTITLE=Requiem - Old Skull Death Metal
DYEAR=2003
DGENRE=Death
TTITLE0=A Good Day to die 
TTITLE1=For God and Fatherland 
TTITLE2=Feuersturm 
EXTD=
EXTT0=
EXTT1=
EXTT2=
PLAYORDER=
